<svg width="24" height="24" viewBox="0 0 24 24" fill="none" xmlns="http://www.w3.org/2000/svg">
<path d="M12.0027 6.47062C8.59743 6.47062 5.85075 9.0864 5.85075 12.3293C5.85075 15.5723 8.59743 18.1881 12.0027 18.1881C15.4079 18.1881 18.1546 15.5723 18.1546 12.3293C18.1546 9.0864 15.4079 6.47062 12.0027 6.47062ZM12.0027 16.1383C9.80212 16.1383 8.00312 14.4301 8.00312 12.3293C8.00312 10.2286 9.79677 8.52041 12.0027 8.52041C14.2086 8.52041 16.0022 10.2286 16.0022 12.3293C16.0022 14.4301 14.2032 16.1383 12.0027 16.1383ZM19.8412 6.23097C19.8412 6.99072 19.1987 7.59749 18.4062 7.59749C17.6085 7.59749 16.9713 6.98562 16.9713 6.23097C16.9713 5.47632 17.6138 4.86444 18.4062 4.86444C19.1987 4.86444 19.8412 5.47632 19.8412 6.23097ZM23.9157 7.61789C23.8247 5.78736 23.3856 4.16588 21.9775 2.82995C20.5747 1.49402 18.8721 1.0759 16.9499 0.984118C14.9689 0.877039 9.03112 0.877039 7.05008 0.984118C5.1333 1.0708 3.43068 1.48892 2.02253 2.82485C0.614389 4.16078 0.180703 5.78226 0.0843279 7.61279C-0.0281093 9.49941 -0.0281093 15.1542 0.0843279 17.0408C0.175349 18.8713 0.614389 20.4928 2.02253 21.8287C3.43068 23.1647 5.12794 23.5828 7.05008 23.6746C9.03112 23.7817 14.9689 23.7817 16.9499 23.6746C18.8721 23.5879 20.5747 23.1698 21.9775 21.8287C23.3803 20.4928 23.8193 18.8713 23.9157 17.0408C24.0281 15.1542 24.0281 9.50451 23.9157 7.61789ZM21.3564 19.0651C20.9388 20.0645 20.1303 20.8344 19.0755 21.2373C17.496 21.8338 13.7481 21.6962 12.0027 21.6962C10.2572 21.6962 6.50396 21.8287 4.92984 21.2373C3.88042 20.8395 3.07195 20.0696 2.64897 19.0651C2.02253 17.5609 2.16709 13.9916 2.16709 12.3293C2.16709 10.6671 2.02789 7.09269 2.64897 5.59359C3.06659 4.59419 3.87507 3.82425 4.92984 3.42143C6.50931 2.82485 10.2572 2.96252 12.0027 2.96252C13.7481 2.96252 17.5014 2.82995 19.0755 3.42143C20.1249 3.81915 20.9334 4.5891 21.3564 5.59359C21.9828 7.09779 21.8383 10.6671 21.8383 12.3293C21.8383 13.9916 21.9828 17.566 21.3564 19.0651Z" fill="#0E0E0E"/>
</svg>
