<svg width="152" height="75" viewBox="0 0 152 75" fill="none" xmlns="http://www.w3.org/2000/svg">
<path fill-rule="evenodd" clip-rule="evenodd" d="M22.5163 0.0619805C27.5928 -0.285891 32.8009 0.826561 37.1561 3.50104C41.619 6.19902 45.1336 10.444 46.875 15.3672C48.6937 20.4501 48.6376 26.1509 46.8251 31.2274C46.0928 33.4914 44.8702 35.5457 43.6648 37.5763C45.22 39.9916 46.5294 42.5859 47.2982 45.364C48.6874 50.2373 48.4971 55.5645 46.6673 60.2976C44.6886 65.4669 40.7334 69.8156 35.8275 72.358C33.2179 73.7189 30.3579 74.583 27.4392 74.9351C26.2188 75.0368 24.9917 74.9569 23.767 74.9827C20.2308 75.1385 16.7096 74.2311 13.5125 72.764C8.17457 70.3255 3.86923 65.7284 1.79759 60.235C0.546892 56.9557 -0.0582007 53.4302 0.00440485 49.922C0.0109204 41.2788 0.00242187 32.6381 0.00893738 23.9971C0.162193 18.4499 1.91005 12.8375 5.48933 8.53441C9.61733 3.44693 16.0184 0.444412 22.5163 0.0619805ZM11.3782 11.8265C8.24569 15.2137 6.7984 19.8822 6.75959 24.438C6.76157 33.15 6.76157 41.8601 6.76157 50.57C6.77885 53.0804 7.20009 55.5968 8.10093 57.9449C9.30857 61.1854 11.5791 64.0219 14.4994 65.8817C17.9215 68.0593 22.0971 68.9686 26.1217 68.5799C30.4055 68.176 34.555 66.1604 37.385 62.8984C40.053 59.9067 41.5306 55.8821 41.4377 51.877C41.4289 48.8572 40.5261 45.8845 39.1045 43.2406C38.9643 42.7955 38.5646 43.1669 38.355 43.327C34.4321 46.5932 29.3556 48.6518 24.201 48.3646C20.8487 48.1895 17.4354 46.7963 15.3161 44.1176C12.0369 40.1556 12.3524 33.703 16.0872 30.1387C18.7337 27.4708 22.6826 26.4685 26.3506 26.7623C31.0168 27.0606 35.402 29.2184 38.9145 32.2365C41.2626 28.1059 42.1765 23.051 40.8068 18.4434C39.7224 14.6995 37.2641 11.3557 33.972 9.25796C27.1024 4.71721 17.0056 5.74326 11.3782 11.8265ZM23.8684 33.2537C22.1597 33.6576 20.4877 34.9171 20.1617 36.7253C19.8376 38.2329 20.4359 39.8791 21.667 40.8125C22.9849 41.8298 24.7347 42.1884 26.3678 41.968C29.4398 41.6136 32.3086 40.1125 34.583 38.0559C34.7301 37.8658 35.1643 37.5936 34.8771 37.3386C33.2006 35.7143 31.1462 34.4678 28.9364 33.7095C27.3182 33.1783 25.5534 32.8777 23.8684 33.2537ZM66.2175 5.52933C68.0277 5.53387 69.8359 5.53585 71.646 5.52933C72.7262 9.25365 73.7826 12.9845 74.8344 16.7173C75.9015 12.9972 76.997 9.28397 77.995 5.54661C79.8139 5.52083 81.6306 5.53387 83.4496 5.53812C83.4516 10.891 83.43 16.2462 83.4626 21.6014C82.2462 21.6467 81.0301 21.6232 79.8162 21.6079C79.8247 17.9249 79.857 14.2417 79.7986 10.5585C78.7295 14.2375 77.6601 17.9184 76.6145 21.6037C75.4307 21.6382 74.2449 21.6512 73.061 21.5929C72.035 17.9162 70.9483 14.2547 69.9092 10.58C69.8616 14.2697 69.905 17.9595 69.8854 21.6467C68.6628 21.6232 67.4401 21.6425 66.2175 21.6059C66.2217 16.2485 66.2195 10.889 66.2175 5.52933ZM85.6097 8.91031C86.8065 8.87575 88.0011 8.89077 89.198 8.85394C89.2671 11.5327 89.1827 14.2114 89.2303 16.8901C89.2411 17.5057 89.4377 18.1731 89.9346 18.5728C90.9932 19.2014 92.5937 18.8796 93.1728 17.7434C93.5487 17.0111 93.4838 16.1621 93.4881 15.3629C93.4708 13.2069 93.5141 11.0508 93.4643 8.89728C94.6807 8.86272 95.8988 8.87122 97.1172 8.91031C97.0979 13.14 97.1107 17.3697 97.1107 21.5994C95.9291 21.6382 94.7475 21.6297 93.566 21.6382C93.5529 21.3076 93.5399 20.975 93.5291 20.6445C92.177 21.826 90.2521 22.0034 88.5586 21.6382C87.4935 21.3532 86.504 20.6272 86.07 19.5926C85.6227 18.6873 85.6097 17.6547 85.6054 16.6655C85.6077 14.0797 85.6034 11.4939 85.6097 8.91031ZM100.092 10.0359C101.619 8.76763 103.732 8.65318 105.626 8.81522C107 8.96224 108.491 9.48915 109.256 10.7141C109.662 11.2954 109.791 12.0036 109.895 12.6885C108.737 12.7274 107.577 12.7078 106.417 12.7123C106.058 11.2432 104.142 11.105 102.989 11.656C102.531 11.8611 102.505 12.4013 102.472 12.831C104.35 13.922 106.728 13.4013 108.601 14.5421C110.783 15.6891 110.735 19.1194 108.895 20.5647C107.504 21.6794 105.631 21.8479 103.913 21.7896C102.341 21.8069 100.658 21.338 99.5863 20.1261C98.9557 19.4307 98.7093 18.4995 98.5821 17.5902C99.7852 17.5814 100.991 17.5684 102.196 17.5944C102.336 18.1301 102.522 18.7395 103.121 18.9165C104.132 19.2556 105.443 19.342 106.313 18.6205C106.748 18.2619 106.583 17.7001 106.393 17.2616C104.486 16.4993 102.274 16.8188 100.468 15.7367C98.4608 14.6285 98.3659 11.4463 100.092 10.0359ZM112.647 10.9236C114.522 8.5386 118.188 8.15192 120.77 9.53661C123.016 10.8349 123.815 13.6215 123.686 16.0714C120.772 16.0583 117.857 16.0453 114.943 16.0821C115.015 16.8986 115.233 17.7583 115.864 18.3308C117.14 19.3677 119.493 18.964 119.966 17.2507C121.147 17.2399 122.331 17.2722 123.513 17.3459C123.148 19.3181 121.655 21.0031 119.704 21.5149C117.888 21.9688 115.848 21.958 114.157 21.0764C112.854 20.3679 111.919 19.0912 111.532 17.6699C110.904 15.419 111.139 12.7856 112.647 10.9236ZM115.088 13.6995C116.674 13.6864 118.261 13.6949 119.849 13.693C119.668 12.8655 119.259 11.9669 118.374 11.7142C116.944 11.1848 115.244 12.157 115.088 13.6995ZM125.194 8.85842C126.373 8.8842 127.553 8.90148 128.732 8.85191C128.814 11.6017 128.687 14.3561 128.784 17.1059C128.803 18.0113 129.521 18.9034 130.48 18.873C131.798 19.0784 133.007 17.9507 133.018 16.6459C133.046 14.0601 133.011 11.4723 133.035 8.88647C134.213 8.90573 135.392 8.84114 136.569 8.90375C136.66 9.24935 136.632 9.60997 136.643 9.96436C136.626 13.8462 136.649 17.7283 136.63 21.6101C135.444 21.6424 134.258 21.6231 133.074 21.6316C133.074 21.3011 133.076 20.9707 133.081 20.6424C131.677 21.852 129.678 22.0333 127.937 21.5948C126.341 21.1436 125.239 19.5795 125.207 17.9422C125.17 14.9156 125.2 11.887 125.194 8.85842ZM127.602 29.7197C127.942 28.9526 128.808 28.5789 129.605 28.5444C130.894 28.5098 132.072 29.1514 133.342 29.2682C133.474 29.0412 133.588 28.8058 133.688 28.5639C134.575 28.5208 135.463 28.5316 136.353 28.5597C136.297 29.7044 136.515 31.1885 135.336 31.8647C133.649 32.7483 131.882 31.4738 130.153 31.5817C130.123 31.7242 130.058 32.0095 130.028 32.15C129.119 32.1585 128.209 32.1562 127.302 32.1455C127.321 31.3333 127.19 30.4605 127.602 29.7197ZM94.1946 28.9334C95.3977 28.9184 96.6011 28.9226 97.8042 28.9311C97.8064 34.5976 97.8172 40.2658 97.7999 45.9321C96.6183 46.012 95.3761 45.7182 94.2487 46.1612C94.1016 40.4214 94.2399 34.6753 94.1946 28.9334ZM67.5827 31.0568C69.2266 29.7563 71.4365 29.4041 73.4758 29.6461C74.8951 29.7954 76.3251 30.3223 77.3404 31.3548C78.3775 32.3636 78.9174 33.7874 79.0514 35.2089C77.8007 35.2627 76.5497 35.2239 75.3013 35.252C75.0982 34.4548 74.7806 33.5778 74.0073 33.1673C72.696 32.4611 70.8382 32.5863 69.8424 33.7766C68.8422 34.9432 68.6391 36.561 68.596 38.0429C68.6303 39.6349 68.9739 41.4474 70.3286 42.4626C71.4518 43.2533 73.0869 43.2686 74.2277 42.506C74.8475 42.0479 75.1132 41.2961 75.2775 40.5748C76.5455 40.5876 77.8115 40.5703 79.0794 40.5791C78.937 42.1796 78.2109 43.7589 76.9322 44.7635C75.258 46.1329 72.9552 46.3513 70.877 46.1374C69.015 45.9343 67.211 44.9601 66.1807 43.3742C64.8975 41.4411 64.619 39.0236 64.7983 36.7576C65.0034 34.6191 65.8524 32.4177 67.5827 31.0568ZM84.7932 33.1868C86.6034 32.8973 88.5952 33.0398 90.1549 34.0896C91.6648 35.1072 92.505 36.9001 92.6152 38.6867C92.7968 40.672 92.4532 42.8884 90.9994 44.3637C89.8286 45.5971 88.0853 46.1439 86.4133 46.1025C84.5794 46.1762 82.6394 45.5303 81.4448 44.0872C80.2848 42.653 79.9349 40.7216 80.0689 38.9199C80.1488 37.4791 80.6154 36.021 81.5808 34.9279C82.3998 33.9859 83.5836 33.4265 84.7932 33.1868ZM85.3958 36.1486C84.344 36.5288 83.8752 37.6888 83.7607 38.7191C83.6117 40.0455 83.7131 41.5707 84.6854 42.586C85.7978 43.6078 87.8887 43.3052 88.5349 41.8882C89.1808 40.5469 89.1244 38.918 88.6558 37.5288C88.2085 36.2393 86.6273 35.6322 85.3958 36.1486ZM100.621 35.4159C102.466 32.8819 106.3 32.3831 108.947 33.8737C111.161 35.1697 111.949 37.9264 111.807 40.3521C108.901 40.3717 105.998 40.3694 103.092 40.3544C103.138 41.1988 103.36 42.1042 104.026 42.6787C104.834 43.277 105.959 43.3073 106.877 42.964C107.499 42.7328 107.836 42.1215 108.121 41.564C109.294 41.5425 110.465 41.5966 111.638 41.6266C111.303 43.7178 109.627 45.4396 107.568 45.8931C105.711 46.2821 103.622 46.2322 101.976 45.1824C100.52 44.3118 99.7138 42.6637 99.4568 41.0326C99.1846 39.1079 99.4223 37.0082 100.621 35.4159ZM104.056 36.455C103.555 36.8071 103.384 37.425 103.196 37.976C104.792 37.989 106.391 38.0148 107.988 37.9564C107.815 37.4142 107.65 36.8332 107.229 36.427C106.346 35.6732 104.933 35.7012 104.056 36.455ZM116.929 33.3573C119.007 32.7955 121.452 32.9318 123.189 34.3207C124.34 35.2453 124.887 36.7099 125.014 38.1465C123.811 38.1575 122.61 38.1618 121.409 38.1465C121.256 37.5439 121.135 36.8547 120.603 36.4572C119.586 35.6473 117.836 35.8524 117.134 36.9887C116.633 37.7363 116.529 38.6694 116.503 39.5484C116.516 40.5314 116.637 41.6031 117.294 42.3849C118.005 43.305 119.42 43.3914 120.389 42.858C121.055 42.5382 121.245 41.7651 121.452 41.1232C122.651 41.1124 123.852 41.1189 125.053 41.117C124.848 42.4541 124.358 43.8215 123.291 44.7093C122.599 45.3424 121.716 45.7008 120.83 45.958C120.424 47.0186 120.037 48.0857 119.676 49.1616C118.698 49.1701 117.717 49.1701 116.739 49.1636C116.942 48.1072 117.203 47.0616 117.315 45.9925C115.98 45.6685 114.665 44.9923 113.9 43.8107C112.725 42.0609 112.649 39.8207 112.978 37.8031C113.36 35.7445 114.881 33.9145 116.929 33.3573ZM127.412 34.5565C128.49 33.4741 130.073 33.1304 131.551 33.0766C133.094 33.029 134.75 33.0789 136.101 33.9211C137.148 34.5282 137.691 35.7769 137.669 36.9565C137.678 39.1964 137.662 41.4346 137.675 43.6745C137.675 44.4351 137.799 45.1889 137.954 45.932C136.697 45.9277 135.442 45.932 134.187 45.9297C134.167 45.5994 134.148 45.2711 134.133 44.9448C133.059 45.8263 131.64 46.1566 130.27 46.1048C128.873 46.1221 127.347 45.6252 126.544 44.4156C125.773 43.1757 125.649 41.4864 126.412 40.2139C127.112 39.1015 128.412 38.5635 129.659 38.3454C131.152 38.097 132.655 37.9284 134.15 37.68C134.072 37.1984 133.962 36.7253 133.794 36.2672C132.796 35.7857 131.558 35.7035 130.536 36.1463C130.011 36.3341 129.886 36.9001 129.732 37.3689C128.577 37.4142 127.421 37.423 126.265 37.382C126.392 36.3624 126.66 35.3061 127.412 34.5565ZM130.35 40.9051C129.387 41.2725 129.35 42.7932 130.262 43.2447C131.275 43.7654 132.614 43.4628 133.426 42.6983C134.083 42.0478 134.107 41.0736 134.12 40.2096C132.858 40.3955 131.54 40.4212 130.35 40.9051ZM143.128 33.2755C145.109 32.852 147.353 32.9749 149.042 34.1999C150.654 35.3514 151.393 37.397 151.384 39.3261C151.458 41.1125 151.036 43.0352 149.747 44.3442C148.591 45.5887 146.852 46.1309 145.189 46.1026C143.348 46.1827 141.4 45.5453 140.199 44.1003C139.108 42.7847 138.738 41.0111 138.799 39.3392C138.79 37.801 139.233 36.2219 140.233 35.0338C140.974 34.1503 142.022 33.567 143.128 33.2755ZM144.141 36.1462C143.085 36.5071 142.605 37.6799 142.504 38.7082C142.339 40.0864 142.452 41.7065 143.538 42.7048C144.495 43.4068 145.966 43.3461 146.835 42.5232C147.388 41.8923 147.669 41.0521 147.695 40.2204C147.746 39.1337 147.742 37.9522 147.116 37.0102C146.517 36.0295 145.167 35.7573 144.141 36.1462ZM133.951 53.2033C135.135 53.2229 136.319 53.2186 137.503 53.2098C137.511 58.8761 137.496 64.5426 137.511 70.2108C136.338 70.2434 135.165 70.2346 133.994 70.215C133.992 69.9105 133.992 69.6082 133.994 69.3077C131.692 71.0705 127.838 70.7963 126.118 68.3445C124.909 66.493 124.686 64.1341 125.131 62.0063C125.55 60.0341 126.948 58.1914 128.94 57.6296C130.579 57.1718 132.506 57.2106 133.932 58.239C133.934 56.5605 133.953 54.8818 133.951 53.2033ZM130.558 60.4055C129.063 60.8398 128.585 62.5851 128.596 63.97C128.598 65.2207 128.955 66.7675 130.234 67.2989C131.184 67.651 132.368 67.5343 133.165 66.8777C133.958 66.0482 133.94 64.8145 133.949 63.7454C133.912 62.7429 133.902 61.5981 133.161 60.8332C132.458 60.2154 131.422 60.2046 130.558 60.4055ZM66.2217 54.1387C68.7772 54.141 71.335 54.141 73.8905 54.1387C75.3012 54.1538 76.8219 54.4759 77.8414 55.5192C78.9108 56.5322 79.1377 58.1914 78.7208 59.5546C78.4355 60.4919 77.6817 61.1681 76.8998 61.7038C77.7681 62.1166 78.6148 62.6868 79.0598 63.5704C80.0451 65.5191 79.2933 68.1154 77.4678 69.2904C76.4763 69.9558 75.2752 70.2476 74.0913 70.2366C71.4648 70.2258 68.8399 70.2607 66.2152 70.2085C66.226 64.8534 66.2132 59.4962 66.2217 54.1387ZM69.8897 57.12C69.8878 58.2409 69.8963 59.3622 69.8812 60.4834C71.2832 60.4854 72.6959 60.6001 74.0937 60.4381C75.3013 60.2004 75.701 58.4591 74.854 57.6341C74.3679 57.1653 73.6594 57.1308 73.0243 57.1135C71.9787 57.1027 70.9331 57.1135 69.8897 57.12ZM69.8897 63.497C69.8897 64.7692 69.8897 66.0417 69.8897 67.314C71.4192 67.2556 72.9724 67.461 74.4826 67.1607C75.6296 66.9361 76.0681 65.4239 75.5432 64.4777C75.2149 63.7755 74.3851 63.5098 73.6659 63.4947C72.4064 63.4625 71.1472 63.4905 69.8897 63.497ZM81.5746 59.7704C83.5491 57.0271 87.8694 56.5648 90.5136 58.5758C92.3368 60.0123 92.9048 62.4644 92.8314 64.6851C89.9107 64.6675 86.9881 64.6525 84.0695 64.6916C84.1712 65.5403 84.3632 66.4975 85.1085 67.0244C86.4371 67.9836 88.6082 67.4737 89.1416 65.8471C90.3062 65.8471 91.4705 65.8666 92.6325 65.9573C92.2849 68.0508 90.5847 69.7638 88.5218 70.2023C86.5451 70.617 84.2898 70.5068 82.6244 69.2454C81.3845 68.3272 80.6953 66.8431 80.4576 65.3482C80.1788 63.4429 80.41 61.3605 81.5746 59.7704ZM84.2488 62.3087C85.8151 62.2786 87.3811 62.3002 88.9473 62.2959C88.8286 61.4424 88.3641 60.5158 87.4547 60.3041C86.0635 59.79 84.3352 60.7903 84.2488 62.3087ZM94.3371 57.5109C95.5167 57.4679 96.696 57.4806 97.8778 57.5087C97.8821 58.0013 97.8971 58.4939 97.9101 58.9863C98.7568 57.5866 100.53 57.4223 102.008 57.4741C102.025 58.6818 102.019 59.8894 102.027 61.099C100.967 61.1186 99.8109 60.937 98.852 61.5072C98.1543 61.9069 97.962 62.7797 97.9705 63.527C97.9685 65.7542 97.9685 67.9817 97.975 70.2108C96.7651 70.2519 95.5532 70.2258 94.3436 70.2542C94.3478 66.0069 94.3609 61.7579 94.3371 57.5109ZM104.721 58.5047C106.218 57.405 108.171 57.3036 109.962 57.3812C111.277 57.4614 112.71 57.7614 113.652 58.7639C114.39 59.4962 114.615 60.5806 114.608 61.5894C114.613 63.8208 114.604 66.0525 114.606 68.2839C114.606 68.9341 114.729 69.578 114.859 70.2151C113.608 70.2519 112.358 70.2216 111.109 70.2193C111.107 69.876 111.107 69.5346 111.107 69.1933C109.673 70.4119 107.674 70.591 105.886 70.2865C104.611 70.0295 103.451 69.1222 103.038 67.8669C102.632 66.5752 102.738 65.0069 103.719 63.9936C104.561 63.1491 105.749 62.7472 106.907 62.5916C108.262 62.4169 109.608 62.1707 110.969 62.0452C110.995 61.4554 110.979 60.6647 110.331 60.4098C109.433 60.073 108.385 60.0752 107.491 60.4186C106.946 60.6129 106.767 61.2092 106.639 61.7103C105.488 61.7016 104.337 61.6996 103.187 61.7081C103.298 60.505 103.712 59.2498 104.721 58.5047ZM107.236 65.2054C106.309 65.6419 106.253 67.1518 107.208 67.5838C108.206 68.0181 109.452 67.7782 110.275 67.0827C110.977 66.428 111.018 65.3978 110.992 64.5034C109.739 64.7215 108.426 64.7238 107.236 65.2054ZM116.717 57.4979C117.888 57.4806 119.057 57.4721 120.227 57.5021C120.223 57.9429 120.221 58.3837 120.225 58.8265C120.687 58.4463 121.141 58.0358 121.705 57.8112C122.548 57.4353 123.496 57.5021 124.396 57.4914C124.384 58.6948 124.384 59.8979 124.392 61.099C123.357 61.1185 122.236 60.9457 121.288 61.4661C120.633 61.8228 120.346 62.5961 120.337 63.3089C120.299 65.6267 120.366 67.9448 120.314 70.2626C119.113 70.2258 117.912 70.2388 116.713 70.213C116.717 65.9746 116.708 61.7364 116.717 57.4979ZM143.497 57.554C145.31 57.1869 147.316 57.2756 148.932 58.254C150.423 59.1095 151.328 60.7534 151.557 62.4254C151.838 64.3826 151.63 66.5299 150.44 68.1718C149.293 69.7358 147.286 70.4615 145.394 70.4032C143.733 70.4635 141.991 69.9539 140.806 68.7505C139.533 67.5213 139.052 65.6896 139.067 63.9656C139.021 62.231 139.466 60.3733 140.719 59.1095C141.445 58.3016 142.46 57.8243 143.497 57.554ZM144.783 60.3493C144.208 60.4661 143.655 60.7901 143.35 61.2998C142.678 62.3411 142.676 63.6417 142.778 64.834C142.901 65.7391 143.27 66.7351 144.126 67.1909C145.027 67.6748 146.243 67.5838 147.025 66.9034C147.679 66.2467 147.958 65.3028 147.991 64.3955C148.04 63.2527 147.975 61.9825 147.206 61.0624C146.638 60.3516 145.634 60.1981 144.783 60.3493Z" fill="#EE2D24"/>
</svg>
