<svg width="32" height="20" viewBox="0 0 32 20" fill="none" xmlns="http://www.w3.org/2000/svg">
<path d="M9.24444 11.601C9.24444 12.3391 8.64833 12.9374 7.913 12.9374C7.17767 12.9374 6.58155 12.3391 6.58155 11.601C6.58155 10.8629 7.17767 10.2646 7.913 10.2646C8.64833 10.2646 9.24444 10.8629 9.24444 11.601ZM23.9646 10.2652C23.2296 10.2652 22.6337 10.8632 22.6337 11.601C22.6337 12.3387 23.2295 12.9368 23.9646 12.9368C24.6996 12.9368 25.2954 12.3388 25.2954 11.601C25.2954 10.8632 24.6996 10.2652 23.9646 10.2652ZM28.9305 18.0435C25.4491 20.7816 20.4152 20.1685 17.6873 16.674L15.9662 19.2572L14.2616 16.6955C11.5796 20.063 6.72705 20.7043 3.268 18.1484C-0.290778 15.5188 -1.05194 10.4913 1.56794 6.91929C1.23107 5.77474 0.700701 4.69682 0 3.73263L5.01589 3.72984C8.29676 1.68075 12.1007 0.633936 15.9639 0.716987C19.7348 0.649511 23.444 1.68301 26.6407 3.69186L31.9861 3.69599C31.279 4.66756 30.746 5.75539 30.411 6.91065C33.0106 10.4096 32.3534 15.3514 28.9305 18.0435ZM14.4092 11.6701C14.4088 8.12604 11.5462 5.25327 8.01522 5.25366C4.48428 5.25405 1.62222 8.12738 1.62256 11.6715C1.62294 15.2156 4.48561 18.0884 8.01655 18.088C11.5451 18.0838 14.4046 15.214 14.4092 11.6724V11.6701ZM15.9976 11.0871C16.2994 6.99195 19.6371 3.78872 23.7265 3.6695C21.2775 2.60671 18.6316 2.0781 15.9639 2.11863C13.2927 2.09264 10.6439 2.60958 8.177 3.63833C12.3072 3.72655 15.6936 6.95197 15.9976 11.0871ZM29.9813 9.48303C28.7595 6.15768 25.0834 4.45615 21.7704 5.68242C18.4574 6.90875 16.7622 10.5986 17.9839 13.9238V13.9256C19.2083 17.2495 22.8838 18.9493 26.1966 17.7238C29.5085 16.4968 31.2028 12.8076 29.9813 9.48303ZM11.868 11.6006V11.607C11.8648 13.8001 10.091 15.5753 7.90611 15.5721C5.72122 15.5689 3.95261 13.7885 3.95578 11.5954C3.95894 9.40239 5.73278 7.62719 7.91767 7.63037C10.0987 7.63684 11.8644 9.41143 11.868 11.6006ZM10.5062 11.6006V11.5959C10.5034 10.1581 9.33989 8.99488 7.90744 8.99773C6.475 9.00057 5.31605 10.1684 5.31889 11.6061C5.32172 13.0439 6.48522 14.2072 7.91761 14.2043C9.34683 14.198 10.503 13.0351 10.5062 11.6006ZM27.9186 11.6006V11.6033C27.9175 13.7963 26.1454 15.5732 23.9604 15.5721C21.7755 15.5709 20.0052 13.7922 20.0064 11.5992C20.0075 9.40613 21.7796 7.6292 23.9646 7.63037C26.1473 7.63405 27.9157 9.4097 27.9186 11.6006ZM26.5573 11.6002C26.5568 10.1624 25.3952 8.99722 23.9627 8.99773C22.5303 8.99823 21.3694 10.1642 21.3699 11.6019C21.3704 13.0397 22.5321 14.2048 23.9645 14.2044C25.3959 14.2018 26.5554 13.0374 26.5573 11.6007V11.6002Z" fill="#0E0E0E"/>
</svg>
