<svg width="30" height="22" viewBox="0 0 30 22" fill="none" xmlns="http://www.w3.org/2000/svg">
<path d="M26.9163 6.02842C26.9354 6.25751 26.9354 6.48665 26.9354 6.71575C26.9354 13.7034 20.7488 21.7549 9.44166 21.7549C5.95813 21.7549 2.7221 20.8875 0 19.382C0.494943 19.4311 0.970785 19.4475 1.48477 19.4475C4.3591 19.4475 7.00509 18.6129 9.11804 17.1892C6.41499 17.1401 4.14974 15.6181 3.36927 13.5235C3.75001 13.5725 4.1307 13.6053 4.53049 13.6053C5.0825 13.6053 5.63457 13.5398 6.1485 13.4253C3.33124 12.9343 1.21823 10.8069 1.21823 8.23766V8.17222C2.03673 8.56498 2.98859 8.81044 3.9974 8.84313C2.3413 7.89396 1.25631 6.27388 1.25631 4.44103C1.25631 3.45916 1.56083 2.55911 2.09386 1.7736C5.12053 4.98107 9.67006 7.07571 14.7715 7.30486C14.6764 6.9121 14.6193 6.50303 14.6193 6.0939C14.6193 3.18096 17.3604 0.808105 20.7678 0.808105C22.5381 0.808105 24.137 1.44633 25.2602 2.4773C26.6497 2.24821 27.9822 1.80634 29.1625 1.20086C28.7055 2.42824 27.7348 3.45921 26.4594 4.11375C27.6967 3.99926 28.896 3.70463 30 3.29555C29.1626 4.34285 28.1156 5.2756 26.9163 6.02842Z" fill="#0E0E0E"/>
</svg>
