<svg width="30" height="20" viewBox="0 0 30 20" fill="none" xmlns="http://www.w3.org/2000/svg">
<path d="M29.3731 3.69191C29.0281 2.51911 28.0115 1.59545 26.7208 1.28199C24.3813 0.712402 15 0.712402 15 0.712402C15 0.712402 5.61879 0.712402 3.27919 1.28199C1.98847 1.5955 0.971904 2.51911 0.626879 3.69191C0 5.81767 0 10.2529 0 10.2529C0 10.2529 0 14.6881 0.626879 16.8139C0.971904 17.9867 1.98847 18.8718 3.27919 19.1853C5.61879 19.7549 15 19.7549 15 19.7549C15 19.7549 24.3812 19.7549 26.7208 19.1853C28.0115 18.8718 29.0281 17.9867 29.3731 16.8139C30 14.6881 30 10.2529 30 10.2529C30 10.2529 30 5.81767 29.3731 3.69191ZM11.9318 14.2797V6.22604L19.7727 10.253L11.9318 14.2797Z" fill="#0E0E0E"/>
</svg>
